<svg xmlns="http://www.w3.org/2000/svg" viewBox="0 0 960 620" role="img" aria-labelledby="t d">
<title id="t">Diagram angin Matahari dan heliosfer</title><desc id="d">Partikel bermuatan bergerak keluar dari korona dan berinteraksi dengan magnetosfer Bumi.</desc>
<defs><radialGradient id="bg"><stop stop-color="#101b2f"/><stop offset="1" stop-color="#030711"/></radialGradient><radialGradient id="sun"><stop stop-color="#fff8cc"/><stop offset=".42" stop-color="#ffbf4f"/><stop offset="1" stop-color="#db5d25"/></radialGradient><linearGradient id="tail"><stop stop-color="#75b8ff" stop-opacity=".65"/><stop offset="1" stop-color="#75b8ff" stop-opacity="0"/></linearGradient></defs>
<rect width="960" height="620" fill="url(#bg)"/><g transform="translate(180 310)"><circle r="105" fill="url(#sun)"/><circle r="137" fill="none" stroke="#ffb94f" stroke-opacity=".22" stroke-width="22"/></g>
<g fill="none" stroke="#f2b04d" stroke-width="2" stroke-opacity=".5"><path d="M310 220C470 150 600 150 790 215"/><path d="M310 270C500 240 625 245 800 275"/><path d="M310 330C505 350 640 350 800 330"/><path d="M310 385C470 450 620 430 785 390"/></g>
<g fill="#f5cc76"><circle cx="390" cy="204" r="4"/><circle cx="472" cy="248" r="3"/><circle cx="540" cy="341" r="4"/><circle cx="630" cy="197" r="3"/><circle cx="701" cy="366" r="4"/></g>
<g transform="translate(785 310)"><circle r="42" fill="#2d74b4"/><path d="M-8 -37C18 -25 31 -6 32 19C13 8 -7 7 -27 16C-29 -7 -22 -26 -8 -37Z" fill="#86c9ee" opacity=".7"/><ellipse rx="76" ry="52" fill="none" stroke="#78c4ff" stroke-opacity=".6" stroke-width="3"/><path d="M-70 0C-115 -23 -137 -10 -154 0C-136 11 -115 24 -70 0Z" fill="url(#tail)"/></g>
<g font-family="Arial,Helvetica,sans-serif"><text x="480" y="58" text-anchor="middle" fill="#f1d89a" font-size="18" letter-spacing="5">ANGIN MATAHARI &amp; CUACA ANTARIKSA</text><text x="180" y="472" text-anchor="middle" fill="#e4d9c6" font-size="15">KORONA</text><text x="540" y="492" text-anchor="middle" fill="#e4d9c6" font-size="15">PLASMA + MEDAN MAGNET</text><text x="785" y="400" text-anchor="middle" fill="#b7cde1" font-size="15">BUMI</text><text x="480" y="558" text-anchor="middle" fill="#7f8b9d" font-size="12">Angin Matahari membentuk heliosfer dan dapat memicu aurora serta gangguan teknologi.</text></g></svg>
