<svg xmlns="http://www.w3.org/2000/svg" viewBox="0 0 1200 720" role="img" aria-labelledby="t d"><title id="t">Diagram tektonik lempeng</title><desc id="d">Ilustrasi proses batas divergen, konvergen, dan transform. Bukan peta lempeng global.</desc>
<defs><linearGradient id="mantle" x1="0" y1="0" x2="0" y2="1"><stop stop-color="#a84d2b"/><stop offset="1" stop-color="#4c1917"/></linearGradient></defs><rect width="1200" height="720" fill="#07101c"/><rect y="410" width="1200" height="310" fill="url(#mantle)"/><path d="M0 380 Q170 330 330 390 T640 380 T930 392 T1200 370 L1200 470 Q1030 430 850 468 T510 455 T180 470 T0 450Z" fill="#2f4658" stroke="#7d9bad" stroke-width="3"/>
<path d="M580 390 600 330 620 390" fill="#f1994a"/><path d="M600 330v-80" stroke="#ffbf66" stroke-width="10"/><path d="M535 340h-105" stroke="#9cd7ff" stroke-width="8"/><path d="M665 340h105" stroke="#9cd7ff" stroke-width="8"/><path d="m440 325-22 15 22 15m320-30 22 15-22 15" fill="none" stroke="#9cd7ff" stroke-width="6"/>
<path d="M925 390 Q1000 330 1090 380" fill="none" stroke="#c7d7df" stroke-width="24"/><path d="M865 392 Q945 430 1020 555" fill="none" stroke="#6f8591" stroke-width="25"/><path d="M900 355h90" stroke="#ffcf77" stroke-width="8"/><path d="m980 340 22 15-22 15" fill="none" stroke="#ffcf77" stroke-width="6"/>
<g fill="#ecf6ff" font-family="Arial,sans-serif"><text x="432" y="150" font-size="32" font-weight="700">DIVERGEN</text><text x="420" y="185" font-size="20">lempeng menjauh • kerak baru terbentuk</text><text x="826" y="160" font-size="32" font-weight="700">KONVERGEN</text><text x="805" y="195" font-size="20">subduksi • gempa • vulkanisme</text><text x="85" y="160" font-size="32" font-weight="700">TRANSFORM</text><text x="80" y="195" font-size="20">lempeng bergeser sejajar</text></g><path d="M110 290h210" stroke="#b4d7ea" stroke-width="8"/><path d="M160 270v40m110-40v40" stroke="#ffaf6b" stroke-width="7"/><text x="55" y="680" fill="#f1d7ae" font-family="Arial,sans-serif" font-size="18" letter-spacing="3">DIAGRAM PROSES • BUKAN PETA LEMPENG GLOBAL</text></svg>
