<svg xmlns="http://www.w3.org/2000/svg" viewBox="0 0 512 512" role="img" aria-label="Ahli Neptunus">
  <defs>
    <radialGradient id="bg"><stop stop-color="#314e91"/><stop offset="1" stop-color="#101a3f"/></radialGradient>
    <radialGradient id="planet"><stop stop-color="#ffffff" stop-opacity=".35"/><stop offset=".3" stop-color="#6e91f2"/><stop offset="1" stop-color="#6e91f2" stop-opacity=".72"/></radialGradient>
  </defs>
  <circle cx="256" cy="256" r="218" fill="url(#bg)" stroke="#d8b36b" stroke-width="12"/>
  <circle cx="256" cy="256" r="188" fill="none" stroke="#dce8ec" stroke-opacity=".28" stroke-width="4"/>
  <g stroke="#d8b36b" stroke-width="4" stroke-linecap="round" opacity=".82">
    <path d="M256 38v20M256 454v20M38 256h20M454 256h20M102 102l14 14M396 396l14 14M410 102l-14 14M116 396l-14 14"/>
  </g>
  <circle cx="256" cy="257" r="92" fill="url(#planet)"/>
  <ellipse cx="300" cy="270" rx="38" ry="24" fill="#243c86" opacity=".9"/><path d="M284 270c10-9 25-9 34 0-9 8-23 9-34 0Z" fill="#17275d"/>
  <path d="M175 371h162" stroke="#d8b36b" stroke-width="3" opacity=".65"/>
  <text x="256" y="405" text-anchor="middle" font-family="Arial, sans-serif" font-size="25" font-weight="700" letter-spacing="3" fill="#f3ead8">AHLI</text>
  <text x="256" y="438" text-anchor="middle" font-family="Arial, sans-serif" font-size="19" font-weight="700" letter-spacing="2" fill="#dbeaf0">NEPTUNUS</text>
</svg>